<svg width="30" height="10" viewBox="0 0 30 10" fill="none" xmlns="http://www.w3.org/2000/svg">
<path d="M16.6812 1.84383L14.8644 5.75836H14.6805V1.00037H12.0851V9.00245H14.2372C14.8211 9.00245 15.3402 8.66723 15.5889 8.14817L17.4166 4.24445H17.6004V9.00245H20.1958V1.00037H18.0113C17.449 1.00037 16.9191 1.33559 16.6812 1.84383Z" fill="#319B42"/>
<path d="M6.97242 2.04929L5.90181 5.75836H5.71797L4.63654 2.04929C4.4527 1.4221 3.87954 1.00037 3.23069 1.00037H0.667709V9.00245H3.26313V4.24445H3.44697L4.93934 9.00245H6.66962L8.16199 4.24445H8.34583V9.00245H10.9412V1.00037H8.37827C7.72942 1.00037 7.14545 1.4221 6.97242 2.04929Z" fill="#319B42"/>
<path d="M21.3243 4.56745V9.00245H23.9206V6.40635H26.7116C27.9231 6.40635 28.9508 5.63834 29.3294 4.56745H21.3243Z" fill="#319B42"/>
<path d="M26.6357 1.00037H20.859C21.216 2.90417 22.8819 4.24549 24.8832 4.24549H29.3726C29.405 4.07241 29.4267 3.87771 29.4267 3.683C29.4267 2.13616 28.1826 1.00037 26.6357 1.00037Z" fill="url(#paint0_linear_2_3460)"/>
<defs>
<linearGradient id="paint0_linear_2_3460" x1="20.859" y1="2.62293" x2="29.4267" y2="2.62293" gradientUnits="userSpaceOnUse">
<stop stop-color="#00A3E1"/>
<stop offset="0.3042" stop-color="#009ADD"/>
<stop offset="0.7987" stop-color="#0082D4"/>
<stop offset="1" stop-color="#0076CF"/>
</linearGradient>
</defs>
</svg>
